{"title":"Watchmen.Directors.Cut.2009.DVDRIP.XviD-ZEKTORM","uid":4999029,"size":751287834,"categoryP":"video","categoryS":"movies","magnet":"?xt=urn:btih:67c9e06a5ffec1a8b8f2d0fad3a0886138ca82c4&amp;dn=Watchmen.Directors.Cut.2009.DVDRIP.XviD-ZEKTORM&amp;tr=udp%3A%2F%2Ftracker.openbittorrent.com%3A80&amp;tr=udp%3A%2F%2Fopen.demonii.com%3A1337&amp;tr=udp%3A%2F%2Ftracker.coppersurfer.tk%3A6969&amp;tr=udp%3A%2F%2Fexodus.desync.com%3A6969","seeders":1,"leechers":0,"uploader":"blowley","files":5,"time":1247426855,"description":"Title                            : Watchmen\nYear                             : 2009\nGenre                            : Action | Drama | Sci-Fi | Thriller\niMDB URL                         : http://www.imdb.com/title/tt0409459/\nAwards                           : 1 nomination\n\nComplete name                    : WDC-ZEKTORM.avi\nFormat                           : AVI\nFile size                        : 701 MiB\nDuration                         : 3h 6mn (DirectorÃ‚Â´s Cut)\nOverall bit rate                 : 526 Kbps\nSubtitles                        : English, Spanish, French (Format: VobSub)\nSource                           : DVD NTSC\n\nVideo\nFormat                           : MPEG-4 Visual\nFormat profile                   : Streaming Video@L1\nCodec ID                         : XVID\nCodec ID/Hint                    : XviD\nDuration                         : 3h 6mn\nBit rate                         : 409 Kbps\nWidth                            : 720 pixels\nHeight                           : 304 pixels\nDisplay aspect ratio             : 2.35\nFrame rate                       : 23.976 fps\nResolution                       : 24 bits\nColorimetry                      : 4:2:0\nScan type                        : Progressive\nBits/(Pixel*Frame)               : 0.078\nStream size                      : 545 MiB (78%)\nWriting library                  : XviD\n\nAudio\nFormat                           : MPEG Audio\nFormat version                   : Version 1\nFormat profile                   : Layer 3\nCodec ID                         : 55\nCodec ID/Hint                    : MP3\nDuration                         : 3h 6mn\nBit rate mode                    : Variable\nBit rate                         : 104 Kbps\nMinimum bit rate                 : 128 Kbps\nChannel(s)                       : 2 channels\nSampling rate                    : 48.0 KHz\nResolution                       : 16 bits\nStream size                      : 139 MiB (20%)\nWriting library                  : LAME3.98r\nEncoding settings                : ABR\n","torrent":{"xt":"urn:btih:67c9e06a5ffec1a8b8f2d0fad3a0886138ca82c4","amp;dn":"Watchmen.Directors.Cut.2009.DVDRIP.XviD-ZEKTORM","amp;tr":["udp%3A%2F%2Ftracker.openbittorrent.com%3A80","udp%3A%2F%2Fopen.demonii.com%3A1337","udp%3A%2F%2Ftracker.coppersurfer.tk%3A6969","udp%3A%2F%2Fexodus.desync.com%3A6969"],"infoHash":"67c9e06a5ffec1a8b8f2d0fad3a0886138ca82c4","infoHashBuffer":{"type":"Buffer","data":[103,201,224,106,95,254,193,168,184,242,208,250,211,160,136,97,56,202,130,196]},"announce":[],"urlList":[]}}